<svg width="32" height="32" viewBox="0 0 32 32" fill="none" xmlns="http://www.w3.org/2000/svg">
<rect x="2" y="8" width="28" height="16.65" rx="1" fill="white"/>
<path d="M28 10H4V22.6523H28V10Z" fill="#B22234"/>
<path d="M28 21.6789H4V20.7057H28V21.6789ZM28 19.7324H4V18.7592H28V19.7324ZM28 17.7859H4V16.8127H28V17.7859ZM28 15.8394H4V14.8662H28V15.8394ZM28 13.8929H4V12.9197H28V13.8929ZM28 11.9464H4V10.9731H28V11.9464Z" fill="white"/>
<path d="M13.6 10H4V16.8128H13.6V10Z" fill="#3C3B6E"/>
<path d="M6.39973 11.6547L6.31228 11.9233H6.03049L6.25981 12.0888L6.17236 12.3574L6.40167 12.192L6.63098 12.3574L6.54353 12.0888L6.77284 11.9233H6.48717L6.39973 11.6547ZM6.39973 13.0173L6.31228 13.2859H6.03049L6.25981 13.4514L6.17236 13.72L6.40167 13.5545L6.63098 13.72L6.54353 13.4514L6.77284 13.2859H6.48717L6.39973 13.0173ZM6.39973 14.3798L6.31228 14.6485H6.03049L6.25981 14.8139L6.17236 15.0825L6.40167 14.9171L6.63098 15.0825L6.54353 14.8139L6.77284 14.6485H6.48717L6.39973 14.3798ZM7.20037 10.9735L7.11292 11.2421H6.83114L7.06045 11.4075L6.973 11.6761L7.20232 11.5107L7.43163 11.6761L7.34418 11.4075L7.57349 11.2421H7.29171L7.20037 10.9735ZM7.20037 13.6986L7.11292 13.9672H6.83114L7.06045 14.1326L6.973 14.4013L7.20232 14.2358L7.43163 14.4013L7.34418 14.1326L7.57349 13.9672H7.29171L7.20037 13.6986ZM6.48717 16.011L6.39973 15.7424L6.31228 16.011H6.03049L6.25981 16.1765L6.17236 16.4451L6.40167 16.2796L6.63098 16.4451L6.54353 16.1765L6.77284 16.011H6.48717ZM6.39973 10.2922L6.31228 10.5608H6.03049L6.25981 10.7262L6.17236 10.9949L6.40167 10.8294L6.63098 10.9949L6.54353 10.7262L6.77284 10.5608H6.48717L6.39973 10.2922ZM7.28782 15.3297L7.20037 15.0611L7.11292 15.3297H6.83114L7.06045 15.4952L6.973 15.7638L7.20232 15.5984L7.43163 15.7638L7.34418 15.4952L7.57349 15.3297H7.28782ZM7.20037 12.336L7.11292 12.6046H6.83114L7.06045 12.7701L6.973 13.0387L7.20232 12.8732L7.43163 13.0387L7.34418 12.7701L7.57349 12.6046H7.29171L7.20037 12.336ZM4.80037 13.0173L4.71292 13.2859H4.4292L4.65851 13.4514L4.57106 13.72L4.80037 13.5545L5.02968 13.72L4.94224 13.4514L5.17155 13.2859H4.88782L4.80037 13.0173ZM4.80037 14.3798L4.71292 14.6485H4.4292L4.65851 14.8139L4.57106 15.0825L4.80037 14.9171L5.02968 15.0825L4.94224 14.8139L5.17155 14.6485H4.88782L4.80037 14.3798ZM4.88782 16.011L4.80037 15.7424L4.71292 16.011H4.4292L4.65851 16.1765L4.57106 16.4451L4.80037 16.2796L5.02968 16.4451L4.94224 16.1765L5.17155 16.011H4.88782ZM4.80037 11.6547L4.71292 11.9233H4.4292L4.65851 12.0888L4.57106 12.3574L4.80037 12.192L5.02968 12.3574L4.94224 12.0888L5.17155 11.9233H4.88782L4.80037 11.6547ZM5.59908 12.336L5.51163 12.6046H5.22985L5.45916 12.7701L5.37171 13.0387L5.60102 12.8732L5.83033 13.0387L5.74288 12.7701L5.9722 12.6046H5.68653L5.59908 12.336ZM5.59908 10.9735L5.51163 11.2421H5.22985L5.45916 11.4075L5.37171 11.6761L5.60102 11.5107L5.83033 11.6761L5.74288 11.4075L5.9722 11.2421H5.68653L5.59908 10.9735ZM4.80037 10.2922L4.71292 10.5608H4.4292L4.65851 10.7262L4.57106 10.9949L4.80037 10.8294L5.02968 10.9949L4.94224 10.7262L5.17155 10.5608H4.88782L4.80037 10.2922ZM5.68653 15.3297L5.59908 15.0611L5.51163 15.3297H5.22985L5.45916 15.4952L5.37171 15.7638L5.60102 15.5984L5.83033 15.7638L5.74288 15.4952L5.9722 15.3297H5.68653ZM5.59908 13.6986L5.51163 13.9672H5.22985L5.45916 14.1326L5.37171 14.4013L5.60102 14.2358L5.83033 14.4013L5.74288 14.1326L5.9722 13.9672H5.68653L5.59908 13.6986ZM8.08653 16.011L7.99908 15.7424L7.91163 16.011H7.62985L7.85916 16.1765L7.77171 16.4451L8.00102 16.2796L8.23033 16.4451L8.14288 16.1765L8.37219 16.011H8.08653ZM9.60037 11.6547L9.51292 11.9233H9.23114L9.46045 12.0888L9.373 12.3574L9.60232 12.192L9.83163 12.3574L9.74418 12.0888L9.97349 11.9233H9.69171L9.60037 11.6547ZM7.99908 14.3798L7.91163 14.6485H7.62985L7.85916 14.8139L7.77171 15.0825L8.00102 14.9171L8.23033 15.0825L8.14288 14.8139L8.37219 14.6485H8.09041L7.99908 14.3798ZM7.99908 13.0173L7.91163 13.2859H7.62985L7.85916 13.4514L7.77171 13.72L8.00102 13.5545L8.23033 13.72L8.14288 13.4514L8.37219 13.2859H8.09041L7.99908 13.0173ZM10.3991 12.336L10.3116 12.6046H10.0298L10.2592 12.7701L10.1717 13.0387L10.401 12.8732L10.6303 13.0387L10.5429 12.7701L10.7722 12.6046H10.4904L10.3991 12.336ZM10.3991 10.9735L10.3116 11.2421H10.0298L10.2592 11.4075L10.1717 11.6761L10.401 11.5107L10.6303 11.6761L10.5429 11.4075L10.7722 11.2421H10.4904L10.3991 10.9735ZM7.99908 11.6547L7.91163 11.9233H7.62985L7.85916 12.0888L7.77171 12.3574L8.00102 12.192L8.23033 12.3574L8.14288 12.0888L8.37219 11.9233H8.09041L7.99908 11.6547ZM10.3991 13.6986L10.3116 13.9672H10.0298L10.2592 14.1326L10.1717 14.4013L10.401 14.2358L10.6303 14.4013L10.5429 14.1326L10.7722 13.9672H10.4904L10.3991 13.6986ZM10.4865 15.3297L10.3991 15.0611L10.3116 15.3297H10.0298L10.2592 15.4952L10.1717 15.7638L10.401 15.5984L10.6303 15.7638L10.5429 15.4952L10.7722 15.3297H10.4865ZM9.60037 10.2922L9.51292 10.5608H9.23114L9.46045 10.7262L9.373 10.9949L9.60232 10.8294L9.83163 10.9949L9.74418 10.7262L9.97349 10.5608H9.69171L9.60037 10.2922ZM7.99908 10.2922L7.91163 10.5608H7.62985L7.85916 10.7262L7.77171 10.9949L8.00102 10.8294L8.23033 10.9949L8.14288 10.7262L8.37219 10.5608H8.09041L7.99908 10.2922ZM9.60037 14.3798L9.51292 14.6485H9.23114L9.46045 14.8139L9.373 15.0825L9.60232 14.9171L9.83163 15.0825L9.74418 14.8139L9.97349 14.6485H9.69171L9.60037 14.3798ZM9.68782 16.011L9.60037 15.7424L9.51292 16.011H9.23114L9.46045 16.1765L9.373 16.4451L9.60232 16.2796L9.83163 16.4451L9.74418 16.1765L9.97349 16.011H9.68782ZM9.60037 13.0173L9.51292 13.2859H9.23114L9.46045 13.4514L9.373 13.72L9.60232 13.5545L9.83163 13.72L9.74418 13.4514L9.97349 13.2859H9.69171L9.60037 13.0173ZM8.79973 10.9735L8.71228 11.2421H8.43049L8.65981 11.4075L8.57236 11.6761L8.80167 11.5107L9.03098 11.6761L8.94353 11.4075L9.17284 11.2421H8.89106L8.79973 10.9735ZM8.88717 15.3297L8.79973 15.0611L8.71228 15.3297H8.43049L8.65981 15.4952L8.57236 15.7638L8.80167 15.5984L9.03098 15.7638L8.94353 15.4952L9.17284 15.3297H8.88717ZM8.79973 12.336L8.71228 12.6046H8.43049L8.65981 12.7701L8.57236 13.0387L8.80167 12.8732L9.03098 13.0387L8.94353 12.7701L9.17284 12.6046H8.89106L8.79973 12.336ZM8.79973 13.6986L8.71228 13.9672H8.43049L8.65981 14.1326L8.57236 14.4013L8.80167 14.2358L9.03098 14.4013L8.94353 14.1326L9.17284 13.9672H8.89106L8.79973 13.6986ZM12.0878 15.3297L12.0004 15.0611L11.9129 15.3297H11.6311L11.8605 15.4952L11.773 15.7638L12.0023 15.5984L12.2316 15.7638L12.1442 15.4952L12.3735 15.3297H12.0878ZM12.0004 13.6986L11.9129 13.9672H11.6311L11.8605 14.1326L11.773 14.4013L12.0023 14.2358L12.2316 14.4013L12.1442 14.1326L12.3735 13.9672H12.0917L12.0004 13.6986ZM11.1997 10.2922L11.1123 10.5608H10.8305L11.0598 10.7262L10.9724 10.9949L11.2017 10.8294L11.431 10.9949L11.3435 10.7262L11.5728 10.5608H11.2872L11.1997 10.2922ZM12.0004 10.9735L11.9129 11.2421H11.6311L11.8605 11.4075L11.773 11.6761L12.0023 11.5107L12.2316 11.6761L12.1442 11.4075L12.3735 11.2421H12.0917L12.0004 10.9735ZM12.0004 12.336L11.9129 12.6046H11.6311L11.8605 12.7701L11.773 13.0387L12.0023 12.8732L12.2316 13.0387L12.1442 12.7701L12.3735 12.6046H12.0917L12.0004 12.336ZM11.2872 16.011L11.1997 15.7424L11.1123 16.011H10.8305L11.0598 16.1765L10.9724 16.4451L11.2017 16.2796L11.431 16.4451L11.3435 16.1765L11.5728 16.011H11.2872ZM11.1997 11.6547L11.1123 11.9233H10.8305L11.0598 12.0888L10.9724 12.3574L11.2017 12.192L11.431 12.3574L11.3435 12.0888L11.5728 11.9233H11.2872L11.1997 11.6547ZM11.1997 14.3798L11.1123 14.6485H10.8305L11.0598 14.8139L10.9724 15.0825L11.2017 14.9171L11.431 15.0825L11.3435 14.8139L11.5728 14.6485H11.2872L11.1997 14.3798ZM11.1997 13.0173L11.1123 13.2859H10.8305L11.0598 13.4514L10.9724 13.72L11.2017 13.5545L11.431 13.72L11.3435 13.4514L11.5728 13.2859H11.2872L11.1997 13.0173ZM12.5717 10.9968L12.801 10.8314L13.0303 10.9968L12.9429 10.7282L13.1722 10.5627H12.8904L12.7991 10.2922L12.7116 10.5608H12.4298L12.6592 10.7262L12.5717 10.9968ZM12.7991 13.0173L12.7116 13.2859H12.4298L12.6592 13.4514L12.5717 13.72L12.801 13.5545L13.0303 13.72L12.9429 13.4514L13.1722 13.2859H12.8904L12.7991 13.0173ZM12.7991 11.6547L12.7116 11.9233H12.4298L12.6592 12.0888L12.5717 12.3574L12.801 12.192L13.0303 12.3574L12.9429 12.0888L13.1722 11.9233H12.8904L12.7991 11.6547ZM12.8865 16.011L12.7991 15.7424L12.7116 16.011H12.4298L12.6592 16.1765L12.5717 16.4451L12.801 16.2796L13.0303 16.4451L12.9429 16.1765L13.1722 16.011H12.8865ZM12.7991 14.3798L12.7116 14.6485H12.4298L12.6592 14.8139L12.5717 15.0825L12.801 14.9171L13.0303 15.0825L12.9429 14.8139L13.1722 14.6485H12.8904L12.7991 14.3798Z" fill="white"/>
</svg>
